<?xml version="1.0" encoding="UTF-8" standalone="no"?>
<!-- Created with Inkscape (http://www.inkscape.org/) -->

<svg
   xmlns:dc="http://purl.org/dc/elements/1.1/"
   xmlns:cc="http://creativecommons.org/ns#"
   xmlns:rdf="http://www.w3.org/1999/02/22-rdf-syntax-ns#"
   xmlns:svg="http://www.w3.org/2000/svg"
   xmlns="http://www.w3.org/2000/svg"
   xmlns:sodipodi="http://sodipodi.sourceforge.net/DTD/sodipodi-0.dtd"
   xmlns:inkscape="http://www.inkscape.org/namespaces/inkscape"
   width="40"
   height="40"
   viewBox="0 0 10.583333 16"
   version="1.1"
   id="svg8"
   inkscape:version="0.92.5 (2060ec1f9f, 2020-04-08)"
   sodipodi:docname="arrow2.svg">
  <defs
     id="defs2" />
  <sodipodi:namedview
     id="base"
     pagecolor="#ffffff"
     bordercolor="#666666"
     borderopacity="1.0"
     inkscape:pageopacity="0.0"
     inkscape:pageshadow="2"
     inkscape:zoom="11.2"
     inkscape:cx="-3.2073339"
     inkscape:cy="6.6257214"
     inkscape:document-units="mm"
     inkscape:current-layer="layer1"
     showgrid="false"
     units="px"
     inkscape:window-width="1854"
     inkscape:window-height="1016"
     inkscape:window-x="66"
     inkscape:window-y="27"
     inkscape:window-maximized="1" />
  <metadata
     id="metadata5">
    <rdf:RDF>
      <cc:Work
         rdf:about="">
        <dc:format>image/svg+xml</dc:format>
        <dc:type
           rdf:resource="http://purl.org/dc/dcmitype/StillImage" />
        <dc:title />
      </cc:Work>
    </rdf:RDF>
  </metadata>
  <g
     inkscape:label="Layer 1"
     inkscape:groupmode="layer"
     id="layer1"
     transform="translate(0,-281)">
    <path
       style="fill:#f9f9f9;stroke-width:0.02671408"
       d="m 8.9011558,282.66879 c 0.7724703,-0.3298 0.8306691,0.79998 0.41685,1.15897 -0.1212126,1.01748 0.073645,2.05091 0.2205169,3.06451 -0.1446867,1.01144 -1.1642489,-0.1511 -0.8572802,-0.77908 -0.1822959,-0.57622 0.019602,-1.86125 -0.2139062,-2.01143 -1.8755992,2.70283 -3.2300709,6.38775 -3.7016461,9.75827 -0.02027,0.41613 -0.046836,1.21535 -0.411574,0.47042 -0.2136038,-0.85843 -0.1121483,-1.07613 -0.044172,-1.93204 0.3572732,-2.59043 1.7634253,-6.06506 3.1794314,-8.13335 -0.9466682,0.38476 -1.6057451,1.6009 -2.4764342,1.84363 -0.5690162,-0.75889 0.6209899,-1.277 1.03551,-1.70479 0.8368236,-0.69569 1.8496486,-1.11225 2.757965,-1.66412 0.026762,-0.0293 0.064993,-0.0453 0.094719,-0.071 z"
       id="path864"
       inkscape:connector-curvature="0"
       sodipodi:nodetypes="cccccccccccccc" />
  </g>
</svg>
