<?xml version="1.0" encoding="UTF-8" standalone="no"?>
<!-- Created with Inkscape (http://www.inkscape.org/) -->

<svg
   xmlns:dc="http://purl.org/dc/elements/1.1/"
   xmlns:cc="http://creativecommons.org/ns#"
   xmlns:rdf="http://www.w3.org/1999/02/22-rdf-syntax-ns#"
   xmlns:svg="http://www.w3.org/2000/svg"
   xmlns="http://www.w3.org/2000/svg"
   xmlns:sodipodi="http://sodipodi.sourceforge.net/DTD/sodipodi-0.dtd"
   xmlns:inkscape="http://www.inkscape.org/namespaces/inkscape"
   width="40"
   height="40"
   viewBox="0 0 10.583333 16"
   version="1.1"
   id="svg8"
   inkscape:version="0.92.5 (2060ec1f9f, 2020-04-08)"
   sodipodi:docname="arrow1.svg">
  <defs
     id="defs2" />
  <sodipodi:namedview
     id="base"
     pagecolor="#ffffff"
     bordercolor="#666666"
     borderopacity="1.0"
     inkscape:pageopacity="0.0"
     inkscape:pageshadow="2"
     inkscape:zoom="11.2"
     inkscape:cx="-10.260539"
     inkscape:cy="6.9828643"
     inkscape:document-units="mm"
     inkscape:current-layer="layer1"
     showgrid="false"
     units="px"
     inkscape:window-width="1854"
     inkscape:window-height="1016"
     inkscape:window-x="66"
     inkscape:window-y="27"
     inkscape:window-maximized="1" />
  <metadata
     id="metadata5">
    <rdf:RDF>
      <cc:Work
         rdf:about="">
        <dc:format>image/svg+xml</dc:format>
        <dc:type
           rdf:resource="http://purl.org/dc/dcmitype/StillImage" />
        <dc:title />
      </cc:Work>
    </rdf:RDF>
  </metadata>
  <g
     inkscape:label="Layer 1"
     inkscape:groupmode="layer"
     id="layer1"
     transform="translate(0,-281)">
    <path
       style="fill:#f9f9f9;stroke-width:0.02486877"
       d="m 3.3287522,283.73938 c -0.7976178,-0.40664 -0.9870287,0.46589 -0.5801592,0.82633 0.017005,0.81919 -0.309261,1.59005 -0.5814533,2.3546 0.043031,0.81901 1.2747357,0.1059 1.0134323,-0.44439 0.2614735,-0.41562 0.1872788,-1.45965 0.456374,-1.53217 1.723619,2.47515 2.7742381,5.61819 2.9062177,8.34538 -0.024701,0.32939 -0.085515,0.95966 0.3919702,0.44717 0.3269095,-0.63035 0.241683,-0.82017 0.2641036,-1.50274 -0.095861,-2.095 -1.2258716,-5.08349 -2.5240288,-6.97386 0.9796543,0.48318 1.5554967,1.56129 2.4689722,1.91874 0.6997387,-0.48408 -0.5278755,-1.11839 -0.9277993,-1.53278 -0.8261553,-0.70525 -1.8737234,-1.22601 -2.7932278,-1.83252 -0.025657,-0.0281 -0.065181,-0.0478 -0.094381,-0.0738 z"
       id="path864"
       inkscape:connector-curvature="0"
       sodipodi:nodetypes="cccccccccccccc" />
  </g>
</svg>
