<?xml version="1.0" encoding="UTF-8" standalone="no"?>
<!-- Created with Inkscape (http://www.inkscape.org/) -->

<svg
   xmlns:dc="http://purl.org/dc/elements/1.1/"
   xmlns:cc="http://creativecommons.org/ns#"
   xmlns:rdf="http://www.w3.org/1999/02/22-rdf-syntax-ns#"
   xmlns:svg="http://www.w3.org/2000/svg"
   xmlns="http://www.w3.org/2000/svg"
   xmlns:sodipodi="http://sodipodi.sourceforge.net/DTD/sodipodi-0.dtd"
   xmlns:inkscape="http://www.inkscape.org/namespaces/inkscape"
   width="40"
   height="40"
   viewBox="0 0 10.583333 16"
   version="1.1"
   id="svg8"
   inkscape:version="0.92.5 (2060ec1f9f, 2020-04-08)"
   sodipodi:docname="arrow3.svg">
  <defs
     id="defs2" />
  <sodipodi:namedview
     id="base"
     pagecolor="#ffffff"
     bordercolor="#666666"
     borderopacity="1.0"
     inkscape:pageopacity="0.0"
     inkscape:pageshadow="2"
     inkscape:zoom="11.2"
     inkscape:cx="-25.930182"
     inkscape:cy="17.340007"
     inkscape:document-units="mm"
     inkscape:current-layer="layer1"
     showgrid="false"
     units="px"
     inkscape:window-width="1854"
     inkscape:window-height="1016"
     inkscape:window-x="66"
     inkscape:window-y="27"
     inkscape:window-maximized="1" />
  <metadata
     id="metadata5">
    <rdf:RDF>
      <cc:Work
         rdf:about="">
        <dc:format>image/svg+xml</dc:format>
        <dc:type
           rdf:resource="http://purl.org/dc/dcmitype/StillImage" />
        <dc:title />
      </cc:Work>
    </rdf:RDF>
  </metadata>
  <g
     inkscape:label="Layer 1"
     inkscape:groupmode="layer"
     id="layer1"
     transform="translate(0,-281)">
    <path
       style="fill:#f9f9f9;stroke-width:0.02772784"
       d="m 10.027906,292.83235 c 0.944939,0.31574 1.136366,-0.63721 0.649147,-0.96056 -0.04772,-0.86646 0.306921,-1.73139 0.598652,-2.58182 -0.0781,-0.86248 -1.4916673,0.0724 -1.167917,0.61825 -0.2910873,0.47875 -0.1689533,1.57539 -0.4806193,1.69132 -2.0962753,-2.3756 -3.4296516,-5.55716 -3.6765016,-8.43077 0.017631,-0.35299 0.067175,-1.03031 -0.4727791,-0.41752 -0.3601732,0.71599 -0.2542216,0.90498 -0.2571813,1.63224 0.1831809,2.20828 1.6039727,5.21442 3.1836883,7.03138 -1.1600325,-0.3705 -1.8689251,-1.4306 -2.9474341,-1.67737 -0.8003769,0.61489 0.6542614,1.10979 1.1352191,1.49138 0.9884055,0.62831 2.229007,1.02886 3.3230287,1.53892 0.03089,0.0261 0.07772,0.0413 0.1126533,0.0647 z"
       id="path864"
       inkscape:connector-curvature="0"
       sodipodi:nodetypes="cccccccccccccc" />
  </g>
</svg>
